<svg width="20" height="20" viewBox="0 0 20 20" fill="none" xmlns="http://www.w3.org/2000/svg">
<path d="M7.57502 7.50008C7.77094 6.94314 8.15765 6.4735 8.66665 6.17436C9.17565 5.87521 9.7741 5.76586 10.356 5.86567C10.9379 5.96549 11.4657 6.26802 11.8459 6.71969C12.2261 7.17136 12.4342 7.74302 12.4334 8.33342C12.4334 10.0001 9.93335 10.8334 9.93335 10.8334M10 14.1667H10.0084M18.3334 10.0001C18.3334 14.6025 14.6024 18.3334 10 18.3334C5.39765 18.3334 1.66669 14.6025 1.66669 10.0001C1.66669 5.39771 5.39765 1.66675 10 1.66675C14.6024 1.66675 18.3334 5.39771 18.3334 10.0001Z" stroke="#A0A0AB" stroke-width="1.3" stroke-linecap="round" stroke-linejoin="round"/>
</svg>
